# xmcd
#
# Track frame offsets:
#	150
#	13522
#	34987
#	50695
#
# Disc length: 945 seconds
#
# Revision: 1
# Processed by: cddbd v1.5PL3 Copyright (c) Steve Scherf et al.
# Submitted via: CDex 1.50Beta5
#
DISCID=2d03af04
DTITLE=Scoobie Do - 夕焼けのメロディ
DYEAR=1900
DGENRE=Rock
TTITLE0=Come On Now!
TTITLE1=Ｅの循環
TTITLE2=夕焼けのメロディ
TTITLE3=雨が降ったら
EXTD=
EXTT0=
EXTT1=
EXTT2=
EXTT3=
PLAYORDER=
